<svg width="57" height="51" viewBox="0 0 57 51" fill="none" xmlns="http://www.w3.org/2000/svg">
<path d="M14.2586 4.52537C1.37059 8.82859 0.806879 9.02827 0.408966 9.40768L0 9.79706V29.5859C0 49.1151 0 49.3747 0.221063 49.6942C0.674242 50.3531 0.718454 50.3631 5.10655 50.3232L9.04147 50.2932L9.33991 50.0436C9.95888 49.5244 9.99204 49.3747 9.91467 47.248C9.73782 42.2858 8.75409 37.9028 7.18454 35.1072L6.55451 33.9889L7.17349 33.919C11.6058 33.4498 15.7507 30.5244 18.2819 26.0814C19.3209 24.2543 20.0946 22.2175 20.393 20.5102L20.4704 20.0908H28.285H36.1106L36.3096 21.0094C36.7849 23.2858 38.2439 26.351 39.7582 28.2779C40.7529 29.5359 42.6872 31.2832 43.892 32.0021C45.5279 32.9805 47.1085 33.5496 48.9654 33.8392L50.0265 34.0089L49.4076 35.1171C47.838 37.9127 46.8543 42.2659 46.6774 47.248C46.6001 49.3747 46.6332 49.5244 47.2522 50.0436L47.5506 50.2932L51.4855 50.3232C55.8736 50.3631 55.9179 50.3531 56.371 49.6942C56.5921 49.3747 56.5921 49.1151 56.5921 29.5859V9.79706L56.1831 9.40768C55.7742 9.02827 55.2436 8.83857 42.2783 4.51539C30.7941 0.681431 28.7161 0.0224724 28.2408 0.0324554C27.7987 0.0424385 25.0133 0.931038 14.2586 4.52537ZM36.807 6.02301L45.0195 8.7587L36.6633 8.78865C32.0541 8.79864 24.538 8.79864 19.9399 8.78865L11.5947 8.7587L19.8625 5.99306C24.4053 4.46547 28.2408 3.2374 28.3624 3.25737C28.495 3.26736 32.2973 4.51539 36.807 6.02301ZM53.1656 14.4497V16.9957H28.296H3.42647V14.4497V11.9037H28.296H53.1656V14.4497ZM10.2794 20.2206C10.2794 20.5501 9.93678 22.7167 9.78203 23.3856C8.98621 26.8102 7.10717 29.3662 4.24441 30.9238C3.89071 31.1135 3.57017 31.2732 3.5149 31.2732C3.47069 31.2732 3.42647 28.7572 3.42647 25.682V20.0908H6.85295C9.57202 20.0908 10.2794 20.1208 10.2794 20.2206ZM16.8781 20.5202C16.7676 21.2091 16.0602 23.0462 15.4855 24.1544C14.358 26.2711 12.9764 27.8786 11.1416 29.1565C11.0421 29.2364 11.23 28.8071 11.5505 28.228C12.6116 26.341 13.2306 24.3142 13.5622 21.6084L13.7501 20.0908H15.3418H16.9445L16.8781 20.5202ZM43.0299 21.6084C43.3615 24.3042 43.9694 26.301 45.0195 28.208C45.351 28.7971 45.5389 29.2164 45.4395 29.1565C42.7536 27.2695 40.6314 24.1245 39.7471 20.7099L39.5924 20.0908H41.2172H42.842L43.0299 21.6084ZM53.1656 25.682C53.1656 28.7572 53.1214 31.2732 53.0772 31.2732C53.0219 31.2732 52.7014 31.1135 52.3477 30.9238C49.496 29.3762 47.6059 26.8003 46.8101 23.3856C46.6553 22.7167 46.3127 20.5501 46.3127 20.2206C46.3127 20.1208 47.0201 20.0908 49.7391 20.0908H53.1656V25.682ZM4.04545 36.3851C4.83022 37.763 5.47131 39.7299 5.90238 42.0562C6.14555 43.3641 6.25608 44.2627 6.46609 46.5691L6.54346 47.3479H4.98497H3.42647V41.4272C3.43753 34.9474 3.39331 35.2469 4.04545 36.3851ZM53.1656 41.4572V47.3479H51.6071H50.0597L50.126 46.4693C50.4244 42.6453 51.1208 39.3704 52.0935 37.2837C52.4803 36.475 53.0109 35.5664 53.1104 35.5664C53.1435 35.5664 53.1656 38.2123 53.1656 41.4572Z" fill="white"/>
</svg>
