<svg width="95" height="103" viewBox="0 0 95 103" fill="none" xmlns="http://www.w3.org/2000/svg">
<path d="M75.382 29.8308L73.1736 27.3741C67.0362 20.8687 58.5664 17.5517 50.092 17.5517C30.9395 17.5517 17.5562 33.3873 17.5562 51.3115C17.5562 68.0074 30.6911 84.9516 50.092 84.9516C58.4378 84.9516 66.7879 82.0071 72.9253 75.3775L74.6414 73.657L94.5301 75.8698C85.6922 92.9337 68.2602 103 50.4557 103C22.9574 103 0 80.7787 0 51.316C0 21.6049 23.0815 0 50.092 0C68.1404 0 85.5724 9.57407 94.5345 26.5183L75.382 29.8308Z" fill="#3AB7B6"/>
<path d="M13.1128 57.4931H82.9783V45.2583H13.0418C12.217 47.2317 11.778 49.3159 11.778 51.4533C11.8844 54.0253 12.4831 56.0297 13.1128 57.4931Z" fill="#3AB7B6"/>
</svg>
