<svg width="17" height="13" viewBox="0 0 17 13" fill="none" xmlns="http://www.w3.org/2000/svg">
<path d="M13.7694 0.413606C14.0512 0.145384 14.4261 -0.00290025 14.8151 4.29907e-05C15.204 0.00298623 15.5767 0.156927 15.8543 0.429381C16.132 0.701836 16.2929 1.07149 16.3032 1.46035C16.3135 1.84921 16.1723 2.22686 15.9094 2.51361L7.92942 12.4936C7.7922 12.6414 7.62659 12.76 7.44248 12.8423C7.25838 12.9247 7.05956 12.969 6.85792 12.9728C6.65628 12.9765 6.45596 12.9395 6.26893 12.8641C6.0819 12.7886 5.91201 12.6762 5.76942 12.5336L0.477417 7.24161C0.330043 7.10428 0.211839 6.93868 0.129855 6.75468C0.047871 6.57068 0.00378701 6.37206 0.00023344 6.17065C-0.00332013 5.96925 0.0337296 5.76919 0.109172 5.58241C0.184614 5.39563 0.296903 5.22597 0.43934 5.08353C0.581778 4.94109 0.751445 4.8288 0.938222 4.75336C1.125 4.67792 1.32506 4.64087 1.52646 4.64442C1.72787 4.64798 1.92649 4.69206 2.11049 4.77404C2.29449 4.85603 2.46009 4.97423 2.59742 5.12161L6.78542 9.30761L13.7314 0.457606C13.7439 0.442208 13.7573 0.427518 13.7714 0.413606H13.7694Z" fill="#7800E7"/>
</svg>
