<svg width="288" height="77" viewBox="0 0 288 77" fill="none" xmlns="http://www.w3.org/2000/svg">
<path d="M55.84 22.11L54.2 20.29C49.65 15.47 43.38 13.01 37.1 13.01C22.91 13.01 13 24.74 13 38.02C13 50.39 22.73 62.94 37.1 62.94C43.28 62.94 49.47 60.76 54.02 55.85L55.29 54.58L70.02 56.22C63.47 68.86 50.56 76.32 37.37 76.32C17.01 76.31 0 59.85 0 38.02C0 16.01 17.1 0 37.11 0C50.48 0 63.39 7.09 70.03 19.64L55.84 22.11Z" fill="#3AB7B6"/>
<path d="M9.71 42.6H61.47V33.54H9.66C9.05 35 8.72 36.55 8.72 38.13C8.8 40.03 9.25 41.52 9.71 42.6Z" fill="#3AB7B6"/>
<path d="M126.95 36.9898C126.95 43.1698 121.96 48.4698 115.71 48.4698C109.57 48.4698 104.35 43.4798 104.35 37.2598C104.35 30.9698 109.38 25.8198 115.71 25.8198C121.72 25.8298 126.95 30.9698 126.95 36.9898ZM107.27 37.2698C107.27 41.8998 111.07 45.6598 115.7 45.6598C120.53 45.6598 124.01 41.6998 124.01 36.9898C124.01 34.6098 123.22 32.6698 121.48 31.0098C119.94 29.5498 117.84 28.6298 115.7 28.6298C110.91 28.6398 107.27 32.5598 107.27 37.2698Z" fill="#3AB7B6"/>
<path d="M131.1 26.3001H133.87V29.4301H133.95C135.53 27.0901 137.75 25.8301 140.6 25.8301C143.49 25.8301 146.34 27.1001 148.28 29.4301C149.94 31.5301 150.26 33.8201 150.26 36.5601V47.9601H147.33V36.5601C147.33 34.7001 147.17 32.9601 146.06 31.4101C144.75 29.5901 142.7 28.6401 140.48 28.6401C138.46 28.6401 136.36 29.6301 135.17 31.2901C134.02 32.8301 134.06 34.7301 134.02 36.5601V47.9601H131.09V26.3001H131.1Z" fill="#3AB7B6"/>
<path d="M178.81 26.2998H181.97L189.46 44.2398L196.94 26.2998H200.11L190.96 47.9598H187.91L178.81 26.2998Z" fill="#3AB7B6"/>
<path d="M205.01 38.1801C205.17 42.3001 209.17 45.6601 213.17 45.6601C216.38 45.6601 219.62 43.8801 220.93 40.9101H223.98C222.47 45.2701 218.04 48.4701 213.45 48.4701C207.12 48.4701 202.08 43.4801 202.08 37.1501C202.08 30.8601 207.07 25.8301 213.37 25.8301C216.77 25.8301 219.9 27.3701 222.08 30.0301C224.1 32.5201 224.54 35.0601 224.62 38.1901H205.01V38.1801ZM221.68 35.5301C220.93 31.6901 217.4 28.6401 213.41 28.6401C209.33 28.6401 205.73 31.5301 205.02 35.5301H221.68Z" fill="#3AB7B6"/>
<path d="M228.65 26.3001H231.42V29.4301H231.5C233.08 27.0901 235.3 25.8301 238.15 25.8301C241.04 25.8301 243.89 27.1001 245.83 29.4301C247.49 31.5301 247.81 33.8201 247.81 36.5601V47.9601H244.88V36.5601C244.88 34.7001 244.72 32.9601 243.61 31.4101C242.3 29.5901 240.25 28.6401 238.03 28.6401C236.01 28.6401 233.91 29.6301 232.72 31.2901C231.57 32.8301 231.61 34.7301 231.57 36.5601V47.9601H228.64V26.3001H228.65Z" fill="#3AB7B6"/>
<path d="M255.29 28.9502H250.78V26.3002H255.29V18.7002H258.22V26.3002H263.25V28.9502H258.22V47.9602H255.29V28.9502Z" fill="#3AB7B6"/>
<path d="M287.99 36.9898C287.99 43.1698 283 48.4698 276.75 48.4698C270.61 48.4698 265.38 43.4798 265.38 37.2598C265.38 30.9698 270.41 25.8198 276.75 25.8198C282.76 25.8298 287.99 30.9698 287.99 36.9898ZM268.31 37.2698C268.31 41.8998 272.11 45.6598 276.74 45.6598C281.57 45.6598 285.05 41.6998 285.05 36.9898C285.05 34.6098 284.26 32.6698 282.52 31.0098C280.97 29.5498 278.88 28.6298 276.74 28.6298C271.96 28.6398 268.31 32.5598 268.31 37.2698Z" fill="#3AB7B6"/>
<path d="M90.45 25.8301C84.19 25.8301 78.73 30.7001 78.73 37.1201C78.73 43.7301 84.11 48.4801 90.57 48.4801C95.1 48.4801 98.9 46.0101 100.9 42.0101L97.83 41.6701C95.93 44.3001 93.6 45.6701 90.26 45.6701C85.43 45.6701 81.67 41.8701 81.67 37.0801C81.67 32.2101 85.71 28.6501 90.5 28.6501C93.46 28.6501 96.34 30.3001 97.85 32.8601L100.91 32.3301C99.08 28.2901 94.84 25.8301 90.45 25.8301Z" fill="#3AB7B6"/>
<path d="M166.03 45.6598C161.58 45.6598 158.04 42.4298 157.51 38.1798H175.06V35.5298H157.58C158.33 31.4698 161.99 28.6398 166.26 28.6398C169.22 28.6398 172.1 30.2898 173.61 32.8498L176.67 32.3198C174.85 28.2898 170.61 25.8198 166.22 25.8198C159.96 25.8198 154.5 30.6898 154.5 37.0998C154.5 43.7098 159.88 48.4598 166.34 48.4598C170.87 48.4598 174.67 45.9898 176.67 41.9898L173.6 41.6498C171.71 44.2898 169.38 45.6598 166.03 45.6598Z" fill="#3AB7B6"/>
</svg>
